<?xml version="1.0" encoding="utf-8"?>
<!-- Generator: Adobe Illustrator 16.0.0, SVG Export Plug-In . SVG Version: 6.00 Build 0)  -->
<!DOCTYPE svg PUBLIC "-//W3C//DTD SVG 1.1//EN" "http://www.w3.org/Graphics/SVG/1.1/DTD/svg11.dtd">
<svg version="1.1" id="图层_1" xmlns="http://www.w3.org/2000/svg" xmlns:xlink="http://www.w3.org/1999/xlink" x="0px" y="0px"
	 width="57px" height="57px" viewBox="0 0 57 57" enable-background="new 0 0 57 57" xml:space="preserve">
<g>
	<path d="M8.878,2.082L8.074,2.967v0.054h7.346c-0.536-0.938-1.448-1.984-2.252-2.547c3.727-0.134,6.381,1.073,5.121,1.958
		l-0.858,0.59h6.703l1.099-1.019l1.34,2.225H8.074v6.863c0,5.442-1.609,10.215-5.416,13.244c1.367-4.021,1.582-6.756,1.582-13.566
		V1.546L8.878,2.082z M18.557,17.068v1.341h5.335l1.073-1.019l1.34,2.225H18.53c-0.188,2.279-1.394,3.78-3.002,4.531
		c-0.912,0.456-1.716,0.214-2.225-0.322l-2.011-2.467c2.064,0.456,3.056-0.321,3.324-1.743H8.208l-0.643-1.206h7.131v-1.341H9.415
		l-0.644-1.206h5.925v-1.1c-1.931,0-3.995-0.053-6.167-0.268c5.174-0.777,9.035-1.421,12.708-2.627l1.93,1.528
		c0.241,0.215,0.268,0.804-0.214,0.831c-1.341,0.161-2.815,0.268-4.397,0.402v1.233h3.244l1.126-1.019l1.313,2.225H18.557z
		 M11.372,12.27V9.884c-0.885,1.072-1.957,1.876-3.164,2.413c0.938-1.367,1.555-3.002,1.931-4.826H9.2L8.583,6.264h2.788V4.388
		l4.075,0.67l-0.858,0.617v0.59h0.75l0.885-0.724l1.126,1.93h-2.761v0.188c2.038,0.59,3.029,1.287,2.333,2.011l-1.475,1.475
		c-0.161-0.777-0.482-1.635-0.858-2.386v3.512H11.372z M19.629,11.68V9.857c-1.045,1.072-2.413,1.957-3.941,2.439
		c1.528-1.77,2.199-3.056,2.788-4.826h-0.777l-0.59-1.207h2.52V4.388l4.048,0.67l-0.831,0.617v0.59h1.26l0.912-0.724l1.153,1.93
		h-2.762c0.965,1.126,1.93,1.77,3.137,2.198l-1.287,2.252c-0.215,0.375-0.644,0.402-0.938,0.027c-0.67-0.858-1.18-2.439-1.475-4.048
		v3.78H19.629z"/>
	<path d="M34.288,11.626l2.869,1.073c0.831,0.295,0.805,0.992,0.536,1.501c-1.823,3.593-5.201,6.381-8.204,7.695
		C31.527,19.481,33.377,15.138,34.288,11.626z M48.203,5.996h-11.1c-1.689,2.842-4.048,5.282-6.542,6.729
		c2.146-3.405,3.593-7.721,4.344-12.359l3.351,0.536c0.992,0.161,0.858,0.724,0.697,1.233c-0.321,0.911-0.697,1.796-1.152,2.654
		h10.59l1.152-1.26l3.593,2.761l-1.501,0.617l-4.96,4.316L48.203,5.996z M39.973,7.283l5.174,0.59l-1.313,0.884v7.561
		c0,4.156-0.966,7.024-3.218,7.855c-0.804,0.295-1.394,0.295-1.876-0.349l-2.306-2.949c2.949,0.349,3.539-0.938,3.539-4.397V7.283z
		 M48.927,21.921c-0.51-3.565-1.984-7.399-3.646-9.651c4.45,1.93,8.767,6.568,6.622,7.614L48.927,21.921z"/>
	<path d="M5.206,41.11H3.249l-0.617-1.206h2.574v-7.319l4.933,0.563L9.066,34.06v5.845h0.242l1.099-1.02l1.34,2.226H9.066v14.96
		h-3.86V41.11z M19.656,49.877h-8.069l-0.644-1.206h8.713v-1.662l4.933,0.724l-1.072,0.59v0.349h0.912l0.911-0.751l1.287,1.957
		h-3.11v1.903c0,2.788-0.804,3.968-2.118,4.531c-0.858,0.375-1.287,0.241-1.85-0.456l-2.038-2.467
		c1.34,0.242,2.145,0.054,2.145-1.555V49.877z M16.948,45.239h-1.233v2.064h-3.485V37.196l4.156,0.724l-0.67,0.59h1.233v-1.77
		h-5.147l-0.644-1.206h5.791v-2.896l4.558,0.482l-0.697,0.616v1.797h1.689c-0.241-1.18-0.724-2.226-1.179-2.896
		c2.413,0.188,4.396,1.099,3.351,1.876l-1.475,1.02h1.207l0.885-0.751l1.287,1.957h-5.764v1.77h1.046l0.724-1.153l3.673,1.261
		l-0.858,1.206v7.186h-3.539v-1.77h-1.046v1.394h-3.86V45.239z M16.921,53.416l-2.306,1.85c-0.402-2.064-1.207-3.78-2.252-5.014
		C16.358,50.467,18.53,52.21,16.921,53.416z M15.715,41.218h1.233v-1.502h-1.233V41.218z M15.715,43.952h1.233v-1.448h-1.233V43.952
		z M20.809,39.716v1.502h1.046v-1.502H20.809z M20.809,43.952h1.046v-1.448h-1.046V43.952z"/>
	<path d="M29.355,37.464c1.582-0.455,3.19-1.716,3.914-4.021c0.215,0.805,0.349,1.502,0.429,2.118h6.676
		c-0.455-1.126-1.126-2.064-2.064-2.976c4.156-0.081,6.863,1.233,5.577,2.118l-1.314,0.857h6.14l0.724-1.26l3.941,2.896l-5.04,2.896
		l0.321-3.244H33.806c0.215,4.183-2.145,3.968-2.788,3.003L29.355,37.464z M39.088,44.22c-0.858-0.563-1.663-1.179-2.387-1.85
		c-1.77,1.636-3.994,3.029-6.541,3.834c2.707-2.332,4.691-5.845,6.112-9.115l2.734,0.857c0.671,0.215,0.912,0.697,0.51,1.287
		c-0.081,0.134-0.188,0.215-0.241,0.322h4.853l1.286-1.072l4.129,2.6l-1.528,0.671c-0.777,0.75-1.716,1.501-2.761,2.198
		c2.627,0.482,5.361,0.697,8.016,0.616l-1.421,2.815c-0.455,0.857-1.045,0.751-1.635,0.751c-2.494-0.081-5.523-0.938-8.284-2.279
		c-1.341,0.617-2.789,1.18-4.316,1.636l1.581,0.214l-1.072,0.831v0.081h6.461l0.751-1.046l3.888,1.448l-0.912,1.232v6.273h-3.86
		v-1.206h-6.327v1.206h-3.86v-8.23c-1.528,0.241-3.163,0.43-4.799,0.483C32.948,47.625,36.406,45.909,39.088,44.22z M37.586,41.539
		c1.1,0.536,2.252,0.992,3.485,1.395c1.072-0.777,1.903-1.502,2.467-2.118h-5.309C38.042,41.057,37.827,41.298,37.586,41.539z
		 M38.122,54.06h6.327v-4.155h-6.327V54.06z"/>
</g>
</svg>
